<svg width="113" height="32" viewBox="0 0 113 32" fill="none" xmlns="http://www.w3.org/2000/svg">
<rect width="113" height="32" fill="white" fill-opacity="0.01"/>
<path fill-rule="evenodd" clip-rule="evenodd" d="M19.9436 4H2.6901C1.97727 4 1.29359 4.28292 0.789207 4.78662C0.284824 5.29033 0.000982669 5.97363 2.19892e-05 6.68645V23.9145C-0.00141002 24.2687 0.067114 24.6197 0.201662 24.9473C0.336209 25.275 0.534132 25.5728 0.784071 25.8237C1.03401 26.0747 1.33105 26.2738 1.65813 26.4097C1.98522 26.5455 2.33591 26.6155 2.6901 26.6155H19.9436C20.2974 26.615 20.6477 26.5447 20.9744 26.4086C21.3011 26.2726 21.5977 26.0734 21.8472 25.8225C22.0968 25.5716 22.2944 25.2739 22.4287 24.9465C22.563 24.6191 22.6314 24.2684 22.63 23.9145V6.68645C22.629 5.97425 22.3457 5.2915 21.8421 4.7879C21.3385 4.2843 20.6557 4.00096 19.9436 4ZM9.7597 20.2891C9.75923 20.4075 9.73538 20.5246 9.68953 20.6337C9.64368 20.7429 9.57673 20.8419 9.49251 20.9251C9.4083 21.0083 9.30849 21.074 9.1988 21.1186C9.08912 21.1631 8.97172 21.1855 8.85334 21.1846H5.08289C4.84602 21.1836 4.61918 21.0889 4.45203 20.921C4.28487 20.7532 4.19103 20.526 4.19103 20.2891V9.06836C4.19103 8.83149 4.28487 8.60427 4.45203 8.43644C4.61918 8.26861 4.84602 8.17384 5.08289 8.17288H8.85334C9.09054 8.17384 9.31776 8.26849 9.48549 8.43622C9.65322 8.60394 9.74787 8.83116 9.74882 9.06836L9.7597 20.2891ZM18.4607 15.1373C18.4608 15.2559 18.4372 15.3732 18.3916 15.4826C18.3459 15.5919 18.2789 15.6911 18.1946 15.7744C18.1103 15.8577 18.0103 15.9235 17.9004 15.9678C17.7905 16.0122 17.6729 16.0343 17.5544 16.0328H13.7839C13.5467 16.0319 13.3195 15.9372 13.1518 15.7695C12.9841 15.6018 12.8894 15.3746 12.8885 15.1373V9.06836C12.8894 8.83116 12.9841 8.60394 13.1518 8.43622C13.3195 8.26849 13.5467 8.17384 13.7839 8.17288H17.5544C17.7913 8.17384 18.0181 8.26861 18.1852 8.43644C18.3524 8.60427 18.4462 8.83149 18.4462 9.06836L18.4607 15.1373Z" fill="url(#paint0_linear_351_251)"/>
<path fill-rule="evenodd" clip-rule="evenodd" d="M83.2617 26.7424C80.2344 26.7424 78.3311 25.2922 78.3311 21.8625V4H82.9825V21.2245C82.9825 22.2142 83.6351 22.5659 84.4327 22.5659C84.6628 22.5705 84.8929 22.5596 85.1215 22.5332V26.5538C84.5132 26.702 83.8873 26.7655 83.2617 26.7424ZM46.891 10.0295V5.65718H31.5337V10.0295H36.7144V26.6158H41.7103V10.0295H46.891ZM48.6319 26.6157H53.2507V18.0669C53.2507 15.4529 54.7662 14.6553 58.0291 14.9091V10.0764C55.5311 9.91689 54.1281 11.2257 53.2507 13.4263V10.3012H48.6319V26.6157ZM88.029 21.8625C88.029 25.2922 89.936 26.7424 92.9632 26.7424C93.5926 26.7669 94.2222 26.7035 94.834 26.5538V22.5332C94.6066 22.5597 94.3776 22.5706 94.1488 22.5659C93.3367 22.5659 92.6805 22.2142 92.6805 21.2245V4H88.029V21.8625ZM97.0632 18.4512C97.0632 13.4119 99.9635 9.96406 104.959 9.96406C109.955 9.96406 112.794 13.401 112.794 18.4512C112.794 23.5015 109.923 27 104.959 27C99.9962 27 97.0632 23.4579 97.0632 18.4512ZM101.591 18.4512C101.591 20.9056 102.621 22.8525 104.959 22.8525C107.298 22.8525 108.269 20.9056 108.269 18.4512C108.269 15.9968 107.272 14.1007 104.959 14.1007C102.646 14.1007 101.591 15.9932 101.591 18.4512ZM68.159 20.1552C66.858 20.1451 65.5584 20.0689 64.2652 19.9268C64.6858 22.2761 66.4079 23.0882 68.8804 23.0882C70.7221 23.0882 72.5167 22.5806 74.1119 22.0694V25.9777C72.3888 26.63 70.5597 26.957 68.7173 26.942C62.5069 26.942 59.7588 23.835 59.7588 18.6035C59.7588 13.5642 62.9456 9.95684 67.9197 9.95684C71.614 9.95684 74.6847 12.4548 74.6847 15.7793C74.6847 19.2053 71.6974 20.1552 68.159 20.1552ZM70.1856 15.6198C70.1856 14.4053 69.1342 13.517 67.8254 13.517V13.5243C67.2181 13.5311 66.6235 13.6997 66.103 14.0125C65.5824 14.3254 65.1545 14.7713 64.8634 15.3044C64.5006 15.977 64.2821 16.7178 64.2217 17.4796C65.0207 17.6038 65.8278 17.6681 66.6363 17.6718C68.536 17.6718 70.1856 17.1823 70.1856 15.6198Z" fill="#293856"/>
<defs>
<linearGradient id="paint0_linear_351_251" x1="11.3259" y1="26.6155" x2="11.3259" y2="4" gradientUnits="userSpaceOnUse">
<stop stop-color="#0052CC"/>
<stop offset="1" stop-color="#2684FF"/>
</linearGradient>
</defs>
</svg>
